<?xml version="1.0" encoding="UTF-8"?>
<svg width="118px" height="111px" viewBox="0 0 118 111" version="1.1" xmlns="http://www.w3.org/2000/svg" xmlns:xlink="http://www.w3.org/1999/xlink">
    <title>Path 4</title>
    <defs>
        <linearGradient x1="0%" y1="99.6591608%" x2="100%" y2="0.340839223%" id="linearGradient-1">
            <stop stop-color="#00A70A" offset="0%"></stop>
            <stop stop-color="#00C200" offset="100%"></stop>
        </linearGradient>
    </defs>
    <g id="Climate-DAO-Wireframes" stroke="none" stroke-width="1" fill="none" fill-rule="evenodd">
        <path d="M94.6880434,15.5193382 C104.157134,23.5042899 111.295372,33.9573177 115.083008,46.2976977 C118.870644,58.7832586 119.453358,73.1561718 113.917582,85.6417327 C108.527484,97.9821127 97.1645748,108.580321 84.7819177,110.612855 C72.3992606,112.645388 58.9968553,106.257426 45.157415,101.176093 C31.1722963,96.0947605 16.8958211,92.320056 8.7378352,82.7381139 C0.434171011,73.3013527 -1.60532546,57.912173 1.16256261,43.6844408 C3.78477235,29.4567085 11.5057233,16.2452429 22.4315972,8.55065301 C33.5031494,1.00124407 47.7796247,-1.17647004 60.7449951,0.56570125 C73.8560438,2.1626916 85.364631,7.53438642 94.6880434,15.5193382 Z" id="Path" fill="url(#linearGradient-1)" fill-rule="nonzero"></path>
    </g>
</svg>