<?xml version="1.0" encoding="UTF-8"?>
<svg width="140px" height="140px" viewBox="0 0 140 140" version="1.1" xmlns="http://www.w3.org/2000/svg" xmlns:xlink="http://www.w3.org/1999/xlink">
    <title>Path 6</title>
    <defs>
        <linearGradient x1="0%" y1="106.11997%" x2="100%" y2="-6.11997035%" id="linearGradient-1">
            <stop stop-color="#00A70A" offset="0%"></stop>
            <stop stop-color="#00C200" offset="100%"></stop>
        </linearGradient>
    </defs>
    <g id="Climate-DAO-Wireframes" stroke="none" stroke-width="1" fill="none" fill-rule="evenodd">
        <path d="M112.341746,19.5739401 C123.576261,29.6450504 132.045356,42.8290494 136.539162,58.3934926 C141.032968,74.1410469 141.724323,92.2690455 135.156453,108.0166 C128.761421,123.581043 115.280004,136.948153 100.588716,139.511709 C85.8974278,142.075264 69.996269,134.018376 53.576594,127.609487 C36.9840804,121.200599 20.0458894,116.43971 10.3669231,104.354378 C0.515118148,92.4521566 -1.90462342,73.0423803 1.37931157,55.0974928 C4.49040787,37.1526054 13.6508581,20.4894955 26.6137594,10.7846074 C39.7494993,1.26283036 56.6876903,-1.48383609 72.0703332,0.713497072 C87.6258147,2.72771914 101.280071,9.50282972 112.341746,19.5739401 Z" id="Path" fill="url(#linearGradient-1)" fill-rule="nonzero" transform="translate(70.000000, 70.000000) rotate(-180.000000) translate(-70.000000, -70.000000) "></path>
    </g>
</svg>